G04 ================== begin FILE IDENTIFICATION RECORD ==================*
G04 Layout Name:  AVRUSB500.brd*
G04 Film Name:    SoldermaskTop*
G04 File Format:  Gerber RS274X*
G04 File Origin:  Cadence Allegro 17.2-P019*
G04 Origin Date:  Mon Jul 29 16:35:30 2019*
G04 *
G04 Layer:  VIA CLASS/SOLDERMASK_TOP*
G04 Layer:  PIN/SOLDERMASK_TOP*
G04 Layer:  PACKAGE GEOMETRY/SOLDERMASK_TOP*
G04 Layer:  BOARD GEOMETRY/SOLDERMASK_TOP*
G04 *
G04 Offset:    (0.000 0.000)*
G04 Mirror:    No*
G04 Mode:      Positive*
G04 Rotation:  0*
G04 FullContactRelief:  No*
G04 UndefLineWidth:     0.000*
G04 ================== end FILE IDENTIFICATION RECORD ====================*
%FSLAX25Y25*MOMM*%
%IR0*IPPOS*OFA0.00000B0.00000*MIA0B0*SFA1.00000B1.00000*%
%ADD11R,1.72X.4*%
%ADD18C,1.321*%
%ADD17C,1.118*%
%ADD15R,1.321X1.321*%
%ADD23C,1.575*%
%ADD22R,1.575X1.575*%
%ADD20O,.457X1.778*%
%ADD16O,1.778X.457*%
%ADD21R,.457X1.778*%
%ADD19R,1.778X.457*%
%ADD12O,1.9X1.2*%
%ADD10R,1.72X1.1*%
%ADD14R,1.499X2.845*%
%ADD13R,2.845X1.499*%
%LPD*%
G75*
G54D10*
X814500Y979000D03*
Y1434000D03*
G54D20*
X3534800Y2015200D03*
X3694800D03*
X3774800D03*
X3854800D03*
X3934800D03*
X4014800D03*
X4094800D03*
Y2864800D03*
X4014800D03*
X3934800D03*
X3854800D03*
X3774800D03*
X3614800D03*
X3534800D03*
X7044800Y2025200D03*
X7204800D03*
X7124800Y2874800D03*
X7044800D03*
X7284800Y2025200D03*
X7364800D03*
X7444800D03*
X7524800D03*
X7604800D03*
Y2874800D03*
X7524800D03*
X7444800D03*
X7364800D03*
X7284800D03*
G54D11*
X814500Y1076500D03*
Y1336500D03*
Y1271500D03*
Y1141500D03*
Y1206500D03*
G54D12*
Y694000D03*
X444500D03*
X814500Y1719000D03*
X444500D03*
G54D21*
X3614800Y2015200D03*
X3694800Y2864800D03*
X7124800Y2025200D03*
X7204800Y2874800D03*
G54D13*
X1206500Y1333500D03*
Y1760200D03*
X1778000Y1333500D03*
Y1760200D03*
X2349500Y1778000D03*
Y1351300D03*
X2603500Y3238500D03*
Y2811800D03*
X6930000Y590000D03*
Y1016700D03*
X7680000Y600000D03*
Y1026700D03*
X8699500Y2540000D03*
Y2113300D03*
X8191500Y2540000D03*
Y2113300D03*
X9271000Y2540000D03*
Y2113300D03*
G54D22*
X6020000Y1770000D03*
X10096500Y1841500D03*
X10140000Y2560000D03*
G54D14*
X1778000Y2349500D03*
Y2857500D03*
X2204700Y2349500D03*
Y2857500D03*
X2476500Y3873500D03*
X3238500D03*
X2903200D03*
X3665200D03*
X4018300D03*
X4780000Y1390000D03*
Y1850000D03*
Y2300000D03*
Y2770000D03*
X4445000Y3873500D03*
X5206700Y1390000D03*
Y1850000D03*
Y2300000D03*
X5605800Y3302000D03*
X5206700Y2770000D03*
X6032500Y3302000D03*
X6983300Y3310000D03*
X7410000D03*
X8382000Y698500D03*
X8350000Y1380000D03*
X8776700D03*
X8808700Y698500D03*
G54D23*
X6020000Y2532000D03*
Y2278000D03*
Y2024000D03*
Y2786000D03*
X10096500Y825500D03*
Y1079500D03*
Y1333500D03*
Y1587500D03*
X10140000Y3322000D03*
Y3068000D03*
Y2814000D03*
Y3576000D03*
G54D15*
X3310000Y640000D03*
X3930000Y650000D03*
X4540000D03*
X8699500Y3556000D03*
G54D16*
X3390000Y2640000D03*
Y2560000D03*
Y2480000D03*
Y2400000D03*
Y2320000D03*
Y2239900D03*
Y2159900D03*
X4239600D03*
Y2239900D03*
Y2320000D03*
Y2480000D03*
Y2560000D03*
Y2640000D03*
Y2720000D03*
X6900000Y2570000D03*
Y2490000D03*
Y2410000D03*
Y2330000D03*
Y2249900D03*
Y2169900D03*
Y2650000D03*
X7749600Y2169900D03*
Y2249900D03*
Y2330000D03*
Y2490000D03*
Y2570000D03*
Y2650000D03*
Y2730000D03*
G54D17*
X2857500Y2476500D03*
X3111500Y2730500D03*
X4318000Y3048000D03*
X6667500Y2540000D03*
X6551400Y2169900D03*
X7556500Y2540000D03*
X8445500D03*
X10096500Y381000D03*
G54D18*
X3429000Y3365500D03*
X4184000Y650000D03*
X3564000Y640000D03*
X4191000Y3365500D03*
X4794000Y650000D03*
X6928000Y1510000D03*
X7690000D03*
X8382000Y3556000D03*
G54D19*
X3390000Y2720000D03*
X4239600Y2400000D03*
X6900000Y2730000D03*
X7749600Y2410000D03*
M02*
